<svg viewBox="0 0 1920 1080" xmlns="http://www.w3.org/2000/svg"><path d="m694.61 8.26c-45.45 13-93.39 14.49-139.9 6-47.93-8.73-93-12.61-151.13-6.84-92.75 9.21-186.29 48.88-241.46 124s-61.58 188.75.12 258.6c21.72 24.58 48.24 41.35 77.7 52.4 101.71 38.14 183 116.61 223.39 217.43a234.83 234.83 0 0 0 19.29 37.86c46.56 73.85 128.58 120.59 214.04 138.29s174.43 8.89 259.73-9.55c90-19.47 179.63-49.77 271.63-45.12 80.78 4.08 157.44 34.89 236 53.94s166.47 25.09 235.84-16.51c81.15-48.66 116-155.3 96.6-247.91s-84.46-170.69-162.34-224.45a547.74 547.74 0 0 0 -316.89-96.22c-64.61 1-130.74 13.25-192.87-4.47-60.48-17.25-109.48-60.87-154.26-105s-89-91.15-145.76-118.28c-39.88-19.12-88.14-26.1-129.73-14.17z" fill="#dcf1ef"/><path d="m182.3 92.35h804.48v500.28h-804.48z"/><path d="m195.5 105.55h778.08v473.88h-778.08z" fill="#1a1a1a"/><path d="m985.69 590.71v3.67h-368.58l-16.1 5.51h-32.95l-16.1-5.51h-370.21v-3.67z" fill="#e5e5e5"/><path d="m195.5 105.55h777.37v40.34h-777.37z"/><path d="m195.5 145.88h777.24v433.45h-777.24z" fill="#202126"/><path d="m205.16 399.35h374.12v170.03h-374.12z" fill="#373737"/><path d="m205.16 155.33h182.23v119.84h-182.23z" fill="#373737"/><path d="m397.05 155.33h182.23v119.84h-182.23z" fill="#373737"/><path d="m588.95 155.33h182.23v119.84h-182.23z" fill="#373737"/><path d="m780.84 155.33h182.23v119.84h-182.23z" fill="#373737"/><path d="m346.82 210.34-19.6 19.6a38.24 38.24 0 0 0 -33.58-19.94c-.79 0-1.57 0-2.35.08l-5.19-26.7a65.23 65.23 0 0 1 60.72 26.95z" fill="#71b37c"/><path d="m286 210.78a38.3 38.3 0 0 0 -26 19.16l-19.6-19.6a65.28 65.28 0 0 1 40.42-26.14z" fill="#646464"/><path d="m296.24 249.44a5.83 5.83 0 0 1 -4.7-10.32l-5.54-28.34-5.16-26.58-2.31-11.86 5.19-1 2.34 12.06 5.19 26.7 5.44 28a5.83 5.83 0 0 1 -.49 11.33z" fill="#fff"/><path d="m536.52 210.33-19.6 19.6a38 38 0 0 0 -8.15-10.25l17.54-20.61a65 65 0 0 1 10.21 11.26z" fill="#71b37c"/><path d="m526.3 199.08-17.54 20.61a38 38 0 0 0 -4.2-3.25l.34-.38 17.28-20.29c1.42 1.04 2.82 2.15 4.12 3.31z" fill="#e14d57"/><path d="m522.18 195.77-17.28 20.29-.34.38a38 38 0 0 0 -21.22-6.44c-.79 0-1.57 0-2.35.08a37.15 37.15 0 0 0 -5.25.69 38.3 38.3 0 0 0 -26 19.16l-19.6-19.6a65.28 65.28 0 0 1 40.42-26.14c1.71-.35 3.45-.61 5.22-.81a65.12 65.12 0 0 1 46.39 12.38z" fill="#646464"/><path d="m534.32 189.68-8 9.34v.06l-17.54 20.61-18.51 21.73a5.85 5.85 0 1 1 -4-3.44l18.38-21.59.34-.38 17.28-20.29.27-.32 7.83-9.21z" fill="#fff"/><path d="m689.22 184.44-6.6 25.62-.17.64a37.49 37.49 0 0 0 -7.22-.69c-.79 0-1.57 0-2.35.08a37.15 37.15 0 0 0 -5.25.69 38.3 38.3 0 0 0 -26 19.16l-19.6-19.6a65.28 65.28 0 0 1 40.42-26.14c1.71-.35 3.45-.61 5.22-.81a64.76 64.76 0 0 1 7.54-.44 66 66 0 0 1 14.01 1.49z" fill="#646464"/><path d="m728.41 210.34-19.6 19.6a38.35 38.35 0 0 0 -21.24-17.88 35.47 35.47 0 0 0 -5.11-1.36l.17-.64 6.6-25.62c1.73.38 3.44.82 5.1 1.34a65.41 65.41 0 0 1 34.08 24.56z" fill="#71b37c"/><path d="m697.49 173.45-3.07 11.89-.11.44-6.66 25.91-.09.37-7 27.28a5.76 5.76 0 0 1 1.8 5.82 5.84 5.84 0 1 1 -6.93-7.15l7-27.32.17-.64 6.6-25.62.15-.6 3-11.71z" fill="#fff"/><path d="m925.14 210.42-19.61 19.58a38.24 38.24 0 0 0 -33.53-19.9c-.79 0-1.57 0-2.35.08a37.15 37.15 0 0 0 -5.25.69 38.2 38.2 0 0 0 -7.53 2.37l-14.25-22-.58-.89a64.37 64.37 0 0 1 17.19-6c1.71-.35 3.45-.61 5.22-.81a65.23 65.23 0 0 1 60.72 26.95z" fill="#71b37c"/><path d="m852.11 215.66a38.39 38.39 0 0 0 -13.73 14.34l-19.6-19.6a65.51 65.51 0 0 1 18.63-17.51l.63 1z" fill="#646464"/><path d="m856.83 213.23a36.2 36.2 0 0 0 -4.72 2.43l-14.11-21.77-.63-1c1.48-.93 3-1.8 4.6-2.61l.58.89z" fill="#71b37c"/><path d="m876.61 248.69a5.82 5.82 0 0 1 -8.21-7.82l-15.67-24.25-.63-1-14.1-21.73-.63-1-5.94-9.18 4.44-2.87 6.13 9.46.58.89 14.25 22 .52.79 15.5 24a5.82 5.82 0 0 1 3.77 10.69z" fill="#fff"/><path d="m205.16 284.62h374.12v105.06h-374.12z" fill="#373737"/><path d="m588.95 284.89h182.47v131.74h-182.47z" fill="#373737"/><g fill="#69a0ef"><path d="m500.8 465.11h9.46v2.13h-9.46z"/><path d="m512.39 462.32h9.46v4.92h-9.46z"/><path d="m523.99 460.35h9.46v6.9h-9.46z"/><path d="m535.59 461.61h9.46v5.64h-9.46z"/><path d="m547.19 456.15h9.46v11.09h-9.46z"/><path d="m500.8 490.94h9.46v3.45h-9.46z"/><path d="m512.39 492.67h9.46v1.72h-9.46z"/><path d="m523.99 491.57h9.46v2.82h-9.46z"/><path d="m535.59 490.94h9.46v3.45h-9.46z"/><path d="m547.19 491.57h9.46v2.82h-9.46z"/><path d="m500.8 514.54h9.46v7.02h-9.46z"/><path d="m512.39 515.33h9.46v6.23h-9.46z"/><path d="m523.99 516.21h9.46v5.36h-9.46z"/><path d="m535.59 517.1h9.46v4.46h-9.46z"/><path d="m547.19 518.06h9.46v3.51h-9.46z"/><path d="m500.8 540.15h9.46v8.59h-9.46z"/><path d="m512.39 539.28h9.46v9.46h-9.46z"/><path d="m523.99 543.82h9.46v4.92h-9.46z"/><path d="m535.59 543.1h9.46v5.64h-9.46z"/><path d="m547.19 540.15h9.46v8.59h-9.46z"/></g><path d="m780.6 284.89h182.47v131.74h-182.47z" fill="#373737"/><path d="m588.95 426.3h374.12v143.08h-374.12z" fill="#373737"/><path d="m802.49 344.38h21.62v39.53h-21.62z" fill="#8fc899"/><path d="m824.12 310.83h21.62v73.08h-21.62z" fill="#69a0ef"/><path d="m855.16 326.66h21.62v57.25h-21.62z" fill="#8fc899"/><path d="m876.79 310.83h21.62v73.08h-21.62z" fill="#69a0ef"/><path d="m929.45 348.86h21.62v35.06h-21.62z" fill="#69a0ef"/><path d="m907.83 334.2h21.62v49.71h-21.62z" fill="#8fc899"/><path d="m869.35 314.23h4.97v166.72h-4.97z" fill="#4d4d4d" transform="matrix(0 -1 1 0 474.25 1269.42)"/><path d="m788.48 296.01h4.97v103.64h-4.97z" fill="#4d4d4d"/><path d="m389.67 207.61h5.1v341.83h-5.1z" fill="#4d4d4d" transform="matrix(0 -1 1 0 13.69 770.75)"/><path d="m375.85 253.77h32.74v343.21h-32.74z" fill="#3f3f3f" transform="matrix(0 -1 1 0 -33.16 817.6)"/><path d="m220.62 409.01h1.96v150.7h-1.96z" fill="#4d4d4d"/><path d="m391.24 387.13h1.96v343.21h-1.96z" fill="#4d4d4d" transform="matrix(0 1 -1 0 950.96 166.52)"/><path d="m391.24 238.38h1.96v343.21h-1.96z" fill="#4d4d4d" transform="matrix(0 1 -1 0 802.21 17.77)"/><path d="m391.24 270.14h1.96v343.21h-1.96z" fill="#4d4d4d" transform="matrix(0 1 -1 0 833.97 49.53)"/><path d="m288.87 409.01h1.96v150.7h-1.96z" fill="#4d4d4d"/><path d="m357.12 409.01h1.96v150.7h-1.96z" fill="#4d4d4d"/><path d="m425.37 409.01h1.96v150.7h-1.96z" fill="#4d4d4d"/><path d="m493.62 409.01h1.96v150.7h-1.96z" fill="#4d4d4d"/><path d="m561.87 409.01h1.96v150.7h-1.96z" fill="#4d4d4d"/><circle cx="240.46" cy="358.06" fill="#ffaa4b" r="6.12"/><circle cx="305.26" cy="305.2" fill="#ffaa4b" r="6.12"/><circle cx="346.93" cy="350.08" fill="#ffaa4b" r="6.12"/><circle cx="395.81" cy="308.17" fill="#ffaa4b" r="6.12"/><circle cx="470.05" cy="356.2" fill="#ffaa4b" r="6.12"/><circle cx="549.68" cy="305.2" fill="#ffaa4b" r="6.12"/><path d="m240.46 358.06 64.82-52.86 41.65 46.34 48.88-44.65 74.59 51.17 80.75-52.86" fill="none" stroke="#ffaa4b" stroke-linejoin="round" stroke-width="6.25"/><rect fill="#ffaa4b" height="11.49" rx="1.48" transform="matrix(.70710678 .70710678 -.70710678 .70710678 419.88 -94.47)" width="11.49" x="318.23" y="453.86"/><rect fill="#ffaa4b" height="11.49" rx="1.48" transform="matrix(.70710678 .70710678 -.70710678 .70710678 459.34 -78.12)" width="11.49" x="318.23" y="509.67"/><rect fill="#ffaa4b" height="11.49" rx="1.48" transform="matrix(.70710678 .70710678 -.70710678 .70710678 479.07 -69.95)" width="11.49" x="318.23" y="537.57"/><circle cx="323.97" cy="487.51" fill="#8fc899" r="7.57"/><path d="m461.75 454.19 6.25 10.81a1.48 1.48 0 0 1 -1.28 2.21h-12.51a1.48 1.48 0 0 1 -1.28-2.21l6.26-10.84a1.48 1.48 0 0 1 2.56.03z" fill="#a2a2a2"/><path d="m459.19 493.67-6.26-10.84a1.48 1.48 0 0 1 1.28-2.21h12.52a1.48 1.48 0 0 1 1.28 2.21l-6.26 10.84a1.48 1.48 0 0 1 -2.56 0z" fill="#a2a2a2"/><path d="m459.19 520.83-6.25-10.83a1.48 1.48 0 0 1 1.28-2.21h12.52a1.48 1.48 0 0 1 1.26 2.21l-6.26 10.84a1.48 1.48 0 0 1 -2.55-.01z" fill="#a2a2a2"/><path d="m461.75 535.68 6.25 10.84a1.48 1.48 0 0 1 -1.28 2.21h-12.51a1.48 1.48 0 0 1 -1.28-2.21l6.26-10.84a1.48 1.48 0 0 1 2.56 0z" fill="#a2a2a2"/><text fill="#cfd4d7" font-family="Soleto-Bold, Soleto" font-size="15.76" font-weight="700" transform="translate(401.93 467.24)">%</text><text fill="#cfd4d7" font-family="Soleto-Bold, Soleto" font-size="15.76" font-weight="700" transform="translate(401.93 494.39)">%</text><text fill="#cfd4d7" font-family="Soleto-Bold, Soleto" font-size="15.76" font-weight="700" transform="translate(401.93 521.57)">%</text><text fill="#cfd4d7" font-family="Soleto-Bold, Soleto" font-size="15.76" font-weight="700" transform="translate(401.93 548.74)">%</text><text fill="#cfd4d7" font-family="Soleto-Bold, Soleto" font-size="15.76" font-weight="700" transform="translate(226.85 467.24)">$</text><text fill="#cfd4d7" font-family="Soleto-Bold, Soleto" font-size="15.76" font-weight="700" transform="translate(226.85 494.39)">$</text><text fill="#cfd4d7" font-family="Soleto-Bold, Soleto" font-size="15.76" font-weight="700" transform="translate(226.85 521.57)">$</text><text fill="#cfd4d7" font-family="Soleto-Bold, Soleto" font-size="15.76" font-weight="700" transform="translate(226.85 548.74)">$</text><path d="m744.73 334.07h23.17v271.11h-23.17z" fill="#69a0ef" transform="matrix(0 1 -1 0 1225.94 -286.7)"/><path d="m710.31 396.71h23.17v202.26h-23.17z" fill="#8fc899" transform="matrix(0 1 -1 0 1219.73 -224.05)"/><path d="m771.36 363.88h23.17v324.36h-23.17z" fill="#ffaa4b" transform="matrix(0 1 -1 0 1309 -256.89)"/><path d="m604.4 435.96h4.97v123.75h-4.97z" fill="#4d4d4d"/><path d="m778.27 380.68h4.97v353.11h-4.97z" fill="#4d4d4d" transform="matrix(0 1 -1 0 1337.99 -223.53)"/><path d="m678.95 301.3v20.59a28.69 28.69 0 0 0 -10.95 2.11l-7.83-19a49.35 49.35 0 0 1 18.78-3.7z" fill="#ba9266"/><path d="m714.43 316.3-14.77 14.35a28.8 28.8 0 0 0 -20.71-8.76v-20.59a49.29 49.29 0 0 1 31.44 11.27 51.69 51.69 0 0 1 4.04 3.73z" fill="#69a0ef"/><path d="m728.41 350.77a49.26 49.26 0 0 1 -9.68 29.4l-16.56-12.24a28.88 28.88 0 0 0 -2.52-37.28l14.77-14.35a49.3 49.3 0 0 1 13.99 34.47z" fill="#8fc899"/><path d="m718.73 380.17a49.63 49.63 0 0 1 -16 14l-9.89-18.07a29.3 29.3 0 0 0 9.36-8.17z" fill="#ffaa4b"/><path d="m702.7 394.16a49.49 49.49 0 0 1 -73.23-43.4 50.18 50.18 0 0 1 .68-8.25l20.33 3.49a27.59 27.59 0 0 0 -.41 4.81 28.88 28.88 0 0 0 42.74 25.33z" fill="#e7616a"/><path d="m668 324a28.87 28.87 0 0 0 -17.52 22l-20.33-3.44a49.52 49.52 0 0 1 30-37.53z" fill="#a96ba7"/><path d="m973.57 579.34h-778.07v-473.79z" fill="#fff" opacity=".06"/><path d="m167.2 675.3s3.2 20.2 2.79 22.5-4.68 19.14-4.76 21.27.08 9.86-3.94 9.86-3.29-7.15-2.63-11a18.8 18.8 0 0 0 -.08-6.9s-4.76 10.92-4.85 14.78-.08 25.38-3.61 25.38-4.12-2.19-3.95-16.75-2.43-19.46 0-22.83 6.18-24.06 6.35-26.28 1-10 1-10z" fill="#f3b385"/><path d="m230.11 420.43h35.15v20.72h-35.15z" fill="#f3b385"/><path d="m207.44 368.79s-4.27-3.78-6.41 3.45 1.64 20.53 5.26 20.37 6.73-3.78 6.73-3.78z" fill="#f3b385"/><path d="m287 368.79s4.27-3.78 6.41 3.45-1.64 20.53-5.26 20.37-6.73-3.78-6.73-3.78z" fill="#f3b385"/><path d="m295.33 332.49c-.68 22-8.07 42.21-8.57 50.09s-6.89 44.34-39.08 48.2h-1.31c-32.2-3.86-38.61-40.32-39.11-48.2s-7.52-28.1-8.54-50.09c-1.13-24.65 30.73-34.49 30.73-34.49-3.44-.5-1.31-4.44-1.31-4.44-4.44-.66-9.7-7.73-8-16.27s10.17-9.7 26.91-8.7 24.34 7.07 24.68 14.45-7.57 11.83-7.57 11.83c-.16 3.76-5.26 4.1-5.26 4.1s37.1 11.5 36.43 33.52z" fill="#d44801"/><path d="m264.11 294.88c-.16 3.76-5.26 4.1-5.26 4.1l-29.41-1c-3.44-.5-1.31-4.44-1.31-4.44z"/><path d="m215.85 951.23 1.56 31.85h6.59 4.65 6.59l1.56-31.85z" fill="#f3b385"/><path d="m261.57 951.23 1.56 31.85h6.59 4.66 6.59l1.56-31.85z" fill="#f3b385"/><path d="m303.1 675.3s5.45 30.18-5.26 83.46-12.21 192.67-12.21 197.92h-27.16s-6.19-170.83-13.2-193.61c-7 22.78-4.38 193.61-4.38 193.61h-27.15c0-5.26-7-145.43-21-197.92s-5.26-83.46-5.26-83.46z" fill="#fe573c"/><path d="m329.43 316-21.85 7.56 23.71 81.09s-25.13 33.84-27.6 36.63-8.54 10-10.68 10.35c0 0-22.83-9-25.62-12s-7.56-3.94-19.55-3.61-14-1-20 3.78-24.47 12.48-27.92 13.14-25.3 1.81-31 24.15-18.4 190.21-18.4 190.21l22.67 2.63 20.37-126.15s3 52.89-1.64 71.29-12.92 63.35-12.92 63.35 66.69 21 137-1.64c0 0-15.77-67.66-14.78-92.64s1.31-86.08 1.31-86.08l58.47-81.8s3.94-8.54 0-15.77-31.57-84.49-31.57-84.49z" fill="#0b7072"/><path d="m169.99 678.1-17.9-1.32.64-9.26 17.26 2z" fill="#dcf1ef"/><path d="m312.27 283.47-4.93 1.82-12.69-34.36.42-5.57a.34.34 0 0 1 .57-.21l3.94 4z" fill="#e6e6e8"/><path d="m300.82 265.31s-4.76-1.56-4.11 7.15 5 17.08 5.17 22.67 5.83 18.4 5.83 18.4l14.54-5.17s-5.42-9.69-4.93-11.74 9-20.45 5.5-25.13-12-15.19-19.3-16.92-5.42 4.19-1.72 5.34 12.07 10.27 11.66 12.89-3.86 8.13-8.13 6.16 1.49-12.83-4.51-13.65z" fill="#f3b385"/><path d="m308.73 323.12-3.34-9.6 19.39-6.65 3.07 9.63z" fill="#dcf1ef"/><path d="m306.01 277.85h5.26v6.73h-5.26z" fill="#b2b2b2" transform="matrix(.93807046 -.34644453 .34644453 .93807046 -78.32 124.35)"/><ellipse cx="226.33" cy="1028.83" opacity=".2" rx="8.08" ry="1.87"/><ellipse cx="272.05" cy="1028.83" opacity=".2" rx="8.08" ry="1.87"/><path d="m206.45 1012.72c0 1.18 8.91 2.13 19.87 2.13s19.9-.95 19.9-2.13a9.16 9.16 0 0 1 -1.84-.89 74.87 74.87 0 0 0 -11.27-1.1l-6.75-1.13-6.73 1.13a74.87 74.87 0 0 0 -11.27 1.1z" fill="#2a2a2a"/><path d="m246.21 1012.72h-39.76a9.14 9.14 0 0 0 1.84-.89c9.7-6 9.09-28.73 9.09-28.73h17.85s-.6 22.68 9.09 28.73a9.14 9.14 0 0 0 1.89.89z" fill="#cd0000"/><path d="m225.74 975.36s-9.06.45-8.32 7.72 1.89 9.21 4.14 11.14 1.71 34.61 1.71 34.61h6.13s-.54-32.68 1.71-34.61 3.39-3.86 4.14-11.14-8.32-7.72-8.32-7.72z"/><path d="m252.17 1012.72c0 1.18 8.91 2.13 19.87 2.13s19.9-.95 19.9-2.13a9.16 9.16 0 0 1 -1.84-.89 74.87 74.87 0 0 0 -11.27-1.1l-6.75-1.13-6.73 1.13a74.87 74.87 0 0 0 -11.27 1.1z" fill="#2a2a2a"/><path d="m291.94 1012.72h-39.76a9.14 9.14 0 0 0 1.84-.89c9.7-6 9.09-28.73 9.09-28.73h17.89s-.6 22.68 9.09 28.73a9.14 9.14 0 0 0 1.85.89z" fill="#cd0000"/><path d="m271.46 975.36s-9.06.45-8.32 7.72 1.89 9.21 4.14 11.14 1.71 34.61 1.71 34.61h6.13s-.54-32.68 1.71-34.61 3.39-3.86 4.14-11.14-8.32-7.72-8.32-7.72z"/><path d="m1249.52 620.86h387a4.2 4.2 0 0 1 4.2 4.2v.84a0 0 0 0 1 0 0h-395.4a0 0 0 0 1 0 0v-.84a4.2 4.2 0 0 1 4.2-4.2z" fill="#464648"/><rect fill="#b2b2b2" height="18.57" rx="7.74" width="407.48" x="1239.3" y="624.05"/><path d="m1434.38 633.33h17.31v379.36h-17.31z" fill="#b2b2b2"/><path d="m1399.87 1005.82h86.34a10.71 10.71 0 0 1 10.71 10.71 0 0 0 0 1 0 0h-107.76a0 0 0 0 1 0 0 10.71 10.71 0 0 1 10.71-10.71z" fill="#b2b2b2"/><path d="m1076.72 762h127.41v11.45h-127.41z"/><path d="m1079.31 930.65h121.13v12.93h-121.13z"/><path d="m1079.31 773.45h14.4v271.38h-14.4z"/><path d="m1186.03 773.45h14.4v271.38h-14.4z"/><rect height="20.68" rx="2.95" width="140.7" x="1070.07" y="741.32"/><path d="m1716.64 797.17h127.41v11.45h-127.41z"/><path d="m1719.23 965.82h121.13v12.93h-121.13z"/><path d="m1719.23 808.62h14.4v271.38h-14.4z"/><path d="m1825.95 808.62h14.4v271.38h-14.4z"/><rect height="20.68" rx="2.95" width="140.7" x="1710" y="776.49"/><path d="m1277.7 613.87h120.88a3.73 3.73 0 0 1 3.73 3.73v3.26a0 0 0 0 1 0 0h-128.31a0 0 0 0 1 0 0v-3.26a3.73 3.73 0 0 1 3.7-3.73z" fill="#1a1a1a" transform="matrix(-1 0 0 -1 2676.29 1234.73)"/><path d="m1414.23 505.7h2.27a0 0 0 0 1 0 0v112.5a.52.52 0 0 1 -.52.52h-1.76a2 2 0 0 1 -2-2v-109a2 2 0 0 1 2.01-2.02z" fill="#1a1a1a" transform="matrix(-.98 -.19 .19 -.98 2693.17 1387.49)"/><path d="m1500.5 613.87h128.34a0 0 0 0 1 0 0v3.26a3.73 3.73 0 0 1 -3.73 3.73h-120.88a3.73 3.73 0 0 1 -3.73-3.73v-3.26a0 0 0 0 1 0 0z" fill="#1a1a1a"/><path d="m1488.34 505.7h1.76a.52.52 0 0 1 .52.52v112.5a0 0 0 0 1 0 0h-2.27a2 2 0 0 1 -2-2v-109a2 2 0 0 1 2-2z" fill="#1a1a1a" transform="matrix(.98109052 -.19354947 .19354947 .98109052 -80.66 298.67)"/><path d="m1138.51 456.19s-12.61-14.77-12.06-30.44-3.31-49 36-53.84 56.05 2.21 56.49 11-6.18 23.72-6.18 23.72l-38.13 12-6.88 21.63z"/><path d="m1139.36 445.83-3.21 39.06 35.87 13.91v-25.05l-24.28-30.34z" fill="#d18f62"/><path d="m1252.45 603.62s12.8 2.21 20.3 0c7-2.07 30.72-10.33 43.12 3.51a4.78 4.78 0 0 1 -3.37 8h-.5c-6.62 0-14.56-3.09-26.7 0s-15.67 4.41-32.88-1.32z" fill="#d18f62"/><path d="m1185.76 555.06s8 108.57 7.11 117-12.8 14.12-24.72 13.24l6.44-117.84z" fill="#024b73"/><path d="m1158 667.61s138.14 8.83 150.06 12.36 9 19.86 9 19.86l-172.77-10.15z" fill="#60b1ea"/><path d="m1262.16 741.32-38.84 161.97h32.22l39.95-125.25 7.13-23.19-7.65-16.77-20.89-4.71z" fill="#60b1ea"/><path d="m1333.66 897.11s-4 8.83-5.3 12.8-7.94 18.1 5.3 19.42 15.45-3.53 21.63 0 33.1 10.15 52.52 8.83-33.1-22.07-43.69-37.07z" fill="#024b73"/><path d="m1150.17 421.78s-7.72-4.3-12.58 1.77-1.32 23 2.21 25.82 6.18 1 6.18 1-1 16.77-.11 19 27.69 13.9 33.87 17.65 13 1.43 13.24-5.08 4.63-15.23 7.94-15.67 11.14 2.21 10.15-9.71-2.32-19.86 1.1-27.25 1-21 .55-22.62-24.05-5.3-46.89 0v13.13s-6.51 3.75-6.62 16.33h-7.06s1-19.22-1.98-14.37z" fill="#d18f62"/><path d="m1208.76 422.37s-15.89-3.83-18.54-2.65-7.65 6.18-7.65 6.18l10.3-1.77 14.42 2.94z"/><path d="m1364.11 901.09-17.14 1h-.55l-18.94 1.15a2.33 2.33 0 0 1 -.07-.32c-2-7.33-37.07-139.34-39.65-161.66h-118.76l-4.78-21.41-8.9-39.93s161.09 10.15 166.83 19.42 41.96 201.75 41.96 201.75z" fill="#70baeb"/><path d="m1347 902.13h-.55l-19 .83c-2-7.33-37.07-139.34-39.65-161.66h-118.8l-16.33-22.07s4.34.23 11.55.65c34.85 2 136.76 8.51 139 14.35 2.63 7.09 43.78 167.9 43.78 167.9z" opacity=".2"/><path d="m1136.15 484.89s21.85-11 41.71 19.86-2.56 114.75-3.27 129.32 1.06 97.54-5.56 107.25h-74.59s-.88-23 3.53-53.84 7.06-79 4.85-103.72-11.02-75.92 33.33-98.87z" fill="#36353b"/><path d="m1124 509.9a21 21 0 0 1 13.76-5.63c8.83-.29 22.28 2 22.88 18.76.88 25 11.25 62.93 11.36 68.23 0 0 26.15 3.53 46 7.5s41.49 2.66 41.49 2.66v18.08s-50.76 2.21-69.29 5.3-39.28 5.3-43.69-7.94-19-39.72-22.51-47.22c-3.23-6.92-20.58-40.18 0-59.74z" fill="#646b70"/><path d="m1223.32 903.29 38.84-161.97h13.32l-41.59 161.97z" opacity=".2"/><path d="m1223.68 899.82s-3.79 8.58-5 12.44-7.58 17.6 5.26 18.79 15-3.53 21-.14 32.16 9.62 51 8.21-32.24-21.17-42.61-35.65z" fill="#024b73"/><ellipse cx="1251.94" cy="1030.68" opacity=".2" rx="35.97" ry="2.36"/><ellipse cx="1364.11" cy="1028.33" opacity=".2" rx="35.97" ry="2.36"/><path d="m1659.07 895.85a12.08 12.08 0 0 1 3.62 13c-2.42 8.46-8.16 21.14-8.16 21.14a4.7 4.7 0 0 1 -7.25 0c-3.93-3.93-7.55 1-16.39.08s-25.9-5.66-10.8-10.65 38.98-23.57 38.98-23.57z" fill="#2e1510"/><path d="m1730.43 933.87s4.91-.42 4.91 8.19.52 23.33-2.46 23.33-3 1.36-7.28 0-7.48 7.25-14.5 7-26.93 3.85-11.77-9.74 31.1-28.78 31.1-28.78z" fill="#2e1510"/><path d="m1776 534.34c-.92 2.57-2 5.13-3.12 7.65-9.15 20.28-24.41 38.28-35.58 51.45-2.36 2.81-4.55 5.4-6.45 7.76a270 270 0 0 1 -19.85 21.61 25.68 25.68 0 0 1 -21.09 7.14l-85.92-10.51v-14.9c10.22 1.56 93.21.53 93.21.53s7.92-24.14 30.52-56.13a63.28 63.28 0 0 1 18.76-18 47.62 47.62 0 0 1 16.24-6.2 40.89 40.89 0 0 1 5.73-.69 7.67 7.67 0 0 1 7.55 10.29z" fill="#60b1e9"/><path d="m1608.14 607.77.21 9.14c-3 1.27-6.33 2.62-9.47 3.82-9.5 3.62-20 .49-20.57-2s14.75-1.21 8.24-5-30.8 9.5-30.22-.38 9.88-11.77 20-14.88 31.81 9.3 31.81 9.3z" fill="#f3b385"/><path d="m1863.55 681.81-9.14-.21c-1.27 3-2.62 6.33-3.82 9.47-3.62 9.5-.49 20 2 20.57s1.21-14.75 5-8.24-9.5 30.8.38 30.22 11.77-9.88 14.88-20-9.3-31.81-9.3-31.81z" fill="#f3b385"/><path d="m1802.39 395s7.71-9.06 27.53-5.66 34.09 16.76 33 35.57-8.16 42.14-15 51.65-11.78 29.9 18.58 25.6c0 0-11.54 17.67-36.58 16.08s-31.15-29-31.15-29z" fill="#1d1609"/><path d="m1802.39 395s7.55-3.22 17.85 0 10.17 15.4 10.17 15.4-23.09-1.4-28.02-15.4z"/><path d="m1778.35 504.17s.55 14.35-15.68 20.55l-7.24 18.65 30.29 18.42 41.28-25.68-2.71-12.11s-17.21.6-25.52-26.12l-20.39-10.71z" fill="#f3b385"/><path d="m1680.74 719.61s-14.12-.76-18.65 49.69-13.29 124.7-14.8 127.76-26.88 18.73-27.18 22.35 8.76 11.48 26-5.13 15.4-8.16 16-24.77 35-113 40.78-121.73 41-1.91 41-1.91l7.31-51.87z" fill="#f8bf92"/><path d="m1764.34 403.14s12.91-12 38.06-8.16 39 23.11 34.43 45.76-14.27 30.36-14.27 30.36l-74.56-34.44s-13.59 0-14.27-11.33c0 0 10.74 8.61 13.41 0s-4.78-24.01 17.2-22.19z" fill="#1d1609"/><path d="m1812.13 462.49s6.12-13.82 13.82-9.29 4.76 22.88-13.82 28.32c0 0-11.33 22.2-29 22.65s-23.11-3.62-28.77-21.29-8.83-32.17-6.34-46.21 8.58-24.92 28.42-24 35.24 3.17 35 18.35.69 31.47.69 31.47z" fill="#f3b385"/><circle cx="1755.42" cy="457.5" fill="none" r="10.72" stroke="#000" stroke-miterlimit="10" stroke-width="1.81"/><circle cx="1785.72" cy="457.5" fill="none" r="10.72" stroke="#000" stroke-miterlimit="10" stroke-width="1.81"/><path d="m1765.34 453.44h10.46" fill="none" stroke="#000" stroke-miterlimit="10" stroke-width="1.81"/><path d="m1796.14 455.05h21.05" fill="none" stroke="#000" stroke-miterlimit="10" stroke-width="1.81"/><path d="m1879.87 577.7c-1 29.56-15.1 107-15.1 107l-13.9 3.17s1.36-128.22-6.34-125.5-10.87 39.42-17.67 60 13.14 65.52 13.14 65.52h-99s23.31-63 2.46-85.63a38.19 38.19 0 0 1 -6.22-8.83c-9.42-18.9 6.6-34.92 9.15-42.55 2.94-8.79 0-20 0-20a47.62 47.62 0 0 1 16.24-6.2 16.55 16.55 0 0 0 10.22 17.32 33.6 33.6 0 0 0 12.18 2.59c25.37 1.2 39.25-20.57 39.25-20.57s13.24-1.53 39.87 9.7c17.97 7.55 16.32 26.86 15.72 43.98z" fill="#70baeb"/><path d="m1750.06 777.6s-7.63 11.93-7.63 34.89 1.21 52.86-5.44 74.91-5.44 50.14-8.16 55-15.39 25.34-20.83 25.6-12.08-3.62-6.65-9.06 13.59-15.1 14.2-32-10.26-104.49-10.55-122.31-6.34-56.78 15.4-51.65a150.55 150.55 0 0 1 36.55 13.59z" fill="#f3b385"/><path d="m1840 687.89s20.39 39.64 11.78 60.71-17.22 28.77-35.34 29-66.37 0-66.37 0-22.2-53-69.32-58c0 0 59.18-16.76 60.29-31.71z" fill="#2e1510"/><ellipse cx="1634.14" cy="1035.23" opacity=".2" rx="13.54" ry="1.16"/><ellipse cx="1709.99" cy="1078.27" opacity=".2" rx="14.37" ry="1.73"/></svg>